<svg width="16" height="8" viewBox="0 0 16 8" fill="none" xmlns="http://www.w3.org/2000/svg">
<path d="M14.75 3.38999H2.6075L4.4375 1.55999C4.655 1.34249 4.655 0.982493 4.4375 0.764993C4.22 0.547493 3.86 0.547493 3.6425 0.764993L0.859985 3.54746C0.807485 3.59996 0.762498 3.66747 0.732498 3.74247C0.732498 3.74997 0.732491 3.75749 0.724991 3.76499C0.702491 3.82499 0.6875 3.8925 0.6875 3.96C0.6875 4.11 0.747478 4.25248 0.852478 4.35748L3.6425 7.1475C3.755 7.26 3.89748 7.31248 4.03998 7.31248C4.18248 7.31248 4.325 7.26 4.4375 7.1475C4.655 6.93 4.655 6.56996 4.4375 6.35246L2.59999 4.51499H14.75C15.0575 4.51499 15.3125 4.25999 15.3125 3.95249C15.3125 3.64499 15.0575 3.38999 14.75 3.38999Z" fill="white"/>
</svg>
