<svg width="16" height="8" viewBox="0 0 16 8" fill="none" xmlns="http://www.w3.org/2000/svg">
<path opacity="0.4" d="M15.3125 4.04746C15.3125 3.89746 15.2525 3.75499 15.1475 3.64999L12.3575 0.859963C12.14 0.642463 11.78 0.642463 11.5625 0.859963C11.345 1.07746 11.345 1.43746 11.5625 1.65496L13.4 3.49247H1.25C0.9425 3.49247 0.6875 3.74747 0.6875 4.05497C0.6875 4.36247 0.9425 4.61747 1.25 4.61747H13.3925L11.5625 6.44747C11.345 6.66497 11.345 7.02497 11.5625 7.24247C11.675 7.35497 11.8175 7.40749 11.96 7.40749C12.1025 7.40749 12.245 7.35497 12.3575 7.24247L15.14 4.46C15.1925 4.4075 15.2375 4.33999 15.2675 4.26499C15.2675 4.25749 15.2675 4.24997 15.275 4.24247C15.2975 4.17497 15.3125 4.11496 15.3125 4.04746Z" fill="white"/>
</svg>
