<svg width="18" height="13" viewBox="0 0 18 13" fill="none" xmlns="http://www.w3.org/2000/svg">
<path fill-rule="evenodd" clip-rule="evenodd" d="M0.535156 1.65199C0.535156 2.17011 0.959069 2.59402 1.47719 2.59402H16.5496C17.0678 2.59402 17.4917 2.17011 17.4917 1.65199C17.4917 1.13387 17.0678 0.709961 16.5496 0.709961H1.47719C0.959069 0.709961 0.535156 1.13387 0.535156 1.65199ZM8.07142 12.0139H9.95548C10.4736 12.0139 10.8975 11.59 10.8975 11.0719C10.8975 10.5538 10.4736 10.1299 9.95548 10.1299H8.07142C7.55331 10.1299 7.12939 10.5538 7.12939 11.0719C7.12939 11.59 7.55331 12.0139 8.07142 12.0139ZM13.7236 7.30398H4.30336C3.78524 7.30398 3.36133 6.88007 3.36133 6.36195C3.36133 5.84383 3.78524 5.41992 4.30336 5.41992H13.7236C14.2418 5.41992 14.6657 5.84383 14.6657 6.36195C14.6657 6.88007 14.2418 7.30398 13.7236 7.30398Z" fill="white"/>
</svg>
