<svg width="19" height="19" viewBox="0 0 19 19" fill="none" xmlns="http://www.w3.org/2000/svg">
<path d="M16.3384 3.84006L9.05798 11.1205L11.9845 16.5555L16.3384 3.84006ZM7.87952 9.94196L15.1602 2.66123L2.44433 7.01532L7.87952 9.94196ZM1.65417 8.48277C0.843716 8.04637 0.540485 7.0356 0.976882 6.22515C1.17594 5.85547 1.50719 5.57454 1.90442 5.43853L16.4123 0.470858C17.2831 0.172672 18.2308 0.636898 18.529 1.50774C18.6488 1.8577 18.6488 2.23759 18.529 2.58756L13.5613 17.0954C13.2631 17.9662 12.3154 18.4305 11.4446 18.1323C11.0474 17.9963 10.7161 17.7153 10.5171 17.3457L7.41505 11.5848L1.65417 8.48277Z" fill="white"/>
</svg>
